<svg class="main-svg" xmlns="http://www.w3.org/2000/svg" xmlns:xlink="http://www.w3.org/1999/xlink" width="700" height="500" style="" viewBox="0 0 700 500"><rect x="0" y="0" width="700" height="500" style="fill: rgb(13, 17, 23); fill-opacity: 1;"/><defs id="defs-daa3dc"><g class="clips"><clipPath id="clipdaa3dcxyplot" class="plotclip"><rect width="550" height="360"/></clipPath><clipPath class="axesclip" id="clipdaa3dcx"><rect x="100" y="0" width="550" height="500"/></clipPath><clipPath class="axesclip" id="clipdaa3dcy"><rect x="0" y="80" width="700" height="360"/></clipPath><clipPath class="axesclip" id="clipdaa3dcxy"><rect x="100" y="80" width="550" height="360"/></clipPath></g><g class="gradients"/><g class="patterns"/></defs><g class="bglayer"/><g class="layer-below"><g class="imagelayer"/><g class="shapelayer"/></g><g class="cartesianlayer"><g class="subplot xy"><g class="layer-subplot"><g class="shapelayer"><g class="shape-group" data-index="0" clip-path="url(#clipdaa3dcxy)"><path data-index="0" fill-rule="evenodd" d="M574.23,422H615.27V338H574.23Z" style="opacity: 1; stroke: rgb(0, 0, 0); stroke-opacity: 0; fill: rgb(63, 185, 80); fill-opacity: 1; stroke-width: 0px;"/></g><g class="shape-group" data-index="1" clip-path="url(#clipdaa3dcxy)"><path data-index="1" fill-rule="evenodd" d="M574.23,302H615.27V218H574.23Z" style="opacity: 1; stroke: rgb(0, 0, 0); stroke-opacity: 0; fill: rgb(63, 185, 80); fill-opacity: 1; stroke-width: 0px;"/></g><g class="shape-group" data-index="2" clip-path="url(#clipdaa3dcxy)"><path data-index="2" fill-rule="evenodd" d="M574.23,182H615.27V98H574.23Z" style="opacity: 1; stroke: rgb(0, 0, 0); stroke-opacity: 0; fill: rgb(63, 185, 80); fill-opacity: 1; stroke-width: 0px;"/></g></g><g class="imagelayer"/></g><g class="minor-gridlayer"><g class="x"/><g class="y"/></g><g class="gridlayer"><g class="x"><path class="xgrid crisp" transform="translate(178.93,0)" d="M0,80v360" style="stroke: rgb(48, 54, 61); stroke-opacity: 1; stroke-width: 1px;"/><path class="xgrid crisp" transform="translate(257.86,0)" d="M0,80v360" style="stroke: rgb(48, 54, 61); stroke-opacity: 1; stroke-width: 1px;"/><path class="xgrid crisp" transform="translate(336.8,0)" d="M0,80v360" style="stroke: rgb(48, 54, 61); stroke-opacity: 1; stroke-width: 1px;"/><path class="xgrid crisp" transform="translate(415.73,0)" d="M0,80v360" style="stroke: rgb(48, 54, 61); stroke-opacity: 1; stroke-width: 1px;"/><path class="xgrid crisp" transform="translate(494.66,0)" d="M0,80v360" style="stroke: rgb(48, 54, 61); stroke-opacity: 1; stroke-width: 1px;"/><path class="xgrid crisp" transform="translate(573.5899999999999,0)" d="M0,80v360" style="stroke: rgb(48, 54, 61); stroke-opacity: 1; stroke-width: 1px;"/></g><g class="y"/></g><g class="zerolinelayer"/><g class="layer-between"><g class="shapelayer"/><g class="imagelayer"/></g><path class="xlines-below"/><path class="ylines-below"/><g class="overlines-below"/><g class="xaxislayer-below"/><g class="yaxislayer-below"/><g class="overaxes-below"/><g class="overplot"><g class="xy" transform="translate(100,80)"><g class="barlayer mlayer"><g class="trace bars" style="opacity: 1;"><g class="points"><g class="point"><path d="M0,101.63V63.38H363.51A 4,4 0 0 1 367.51,67.38V97.63A 4,4 0 0 1 363.51,101.63Z" clip-path="url(#clipdaa3dcxyplot)" style="vector-effect: none; opacity: 1; stroke-width: 0px; fill: rgb(248, 81, 73); fill-opacity: 1;"/><text class="bartext bartext-outside" text-anchor="middle" data-notex="1" x="0" y="0" style="font-family: 'Arial Black'; font-size: 13px; fill: rgb(230, 237, 243); fill-opacity: 1; white-space: pre;" transform="translate(400.494375,87.505)">2,328ms</text></g><g class="point"><path d="M0,221.63V183.38H388.14A 4,4 0 0 1 392.14,187.38V217.63A 4,4 0 0 1 388.14,221.63Z" clip-path="url(#clipdaa3dcxyplot)" style="vector-effect: none; opacity: 1; stroke-width: 0px; fill: rgb(248, 81, 73); fill-opacity: 1;"/><text class="bartext bartext-outside" text-anchor="middle" data-notex="1" x="0" y="0" style="font-family: 'Arial Black'; font-size: 13px; fill: rgb(230, 237, 243); fill-opacity: 1; white-space: pre;" transform="translate(425.124375,207.505)">2,484ms</text></g><g class="point"><path d="M0,341.63V303.38H254.11A 4,4 0 0 1 258.11,307.38V337.63A 4,4 0 0 1 254.11,341.63Z" clip-path="url(#clipdaa3dcxyplot)" style="vector-effect: none; opacity: 1; stroke-width: 0px; fill: rgb(248, 81, 73); fill-opacity: 1;"/><text class="bartext bartext-outside" text-anchor="middle" data-notex="1" x="0" y="0" style="font-family: 'Arial Black'; font-size: 13px; fill: rgb(230, 237, 243); fill-opacity: 1; white-space: pre;" transform="translate(291.094375,327.505)">1,635ms</text></g></g></g><g class="trace bars" style="opacity: 1;"><g class="points"><g class="point"><path d="M0,56.62V18.37H0.26A 1,1 0 0 1 1.26,19.37V55.62A 1,1 0 0 1 0.26,56.62Z" clip-path="url(#clipdaa3dcxyplot)" style="vector-effect: none; opacity: 1; stroke-width: 0px; fill: rgb(63, 185, 80); fill-opacity: 1;"/><text class="bartext bartext-outside" text-anchor="middle" data-notex="1" x="0" y="0" style="font-family: 'Arial Black'; font-size: 13px; fill: rgb(63, 185, 80); fill-opacity: 1; white-space: pre;" transform="translate(19.072499999999998,42.495)">8ms</text></g><g class="point"><path d="M0,176.63V138.38H0.41999999999999993A 1,1 0 0 1 1.42,139.38V175.63A 1,1 0 0 1 0.41999999999999993,176.63Z" clip-path="url(#clipdaa3dcxyplot)" style="vector-effect: none; opacity: 1; stroke-width: 0px; fill: rgb(63, 185, 80); fill-opacity: 1;"/><text class="bartext bartext-outside" text-anchor="middle" data-notex="1" x="0" y="0" style="font-family: 'Arial Black'; font-size: 13px; fill: rgb(63, 185, 80); fill-opacity: 1; white-space: pre;" transform="translate(19.2325,162.505)">9ms</text></g><g class="point"><path d="M0,296.63V258.38H0.7400000000000002A 4,4 0 0 1 4.74,262.38V292.63A 4,4 0 0 1 0.7400000000000002,296.63Z" clip-path="url(#clipdaa3dcxyplot)" style="vector-effect: none; opacity: 1; stroke-width: 0px; fill: rgb(63, 185, 80); fill-opacity: 1;"/><text class="bartext bartext-outside" text-anchor="middle" data-notex="1" x="0" y="0" style="font-family: 'Arial Black'; font-size: 13px; fill: rgb(63, 185, 80); fill-opacity: 1; white-space: pre;" transform="translate(26.888437500000002,282.505)">30ms</text></g></g></g></g></g></g><path class="xlines-above crisp" d="M0,0" style="fill: none;"/><path class="ylines-above crisp" d="M0,0" style="fill: none;"/><g class="overlines-above"/><g class="xaxislayer-above"><g class="xtick"><text text-anchor="middle" x="0" y="452" transform="translate(100,0)" style="font-family: Arial; font-size: 11px; fill: rgb(139, 148, 158); fill-opacity: 1; white-space: pre; opacity: 1;">0</text></g><g class="xtick"><text text-anchor="middle" x="0" y="452" style="font-family: Arial; font-size: 11px; fill: rgb(139, 148, 158); fill-opacity: 1; white-space: pre; opacity: 1;" transform="translate(178.93,0)">500</text></g><g class="xtick"><text text-anchor="middle" x="0" y="452" style="font-family: Arial; font-size: 11px; fill: rgb(139, 148, 158); fill-opacity: 1; white-space: pre; opacity: 1;" transform="translate(257.86,0)">1000</text></g><g class="xtick"><text text-anchor="middle" x="0" y="452" style="font-family: Arial; font-size: 11px; fill: rgb(139, 148, 158); fill-opacity: 1; white-space: pre; opacity: 1;" transform="translate(336.8,0)">1500</text></g><g class="xtick"><text text-anchor="middle" x="0" y="452" style="font-family: Arial; font-size: 11px; fill: rgb(139, 148, 158); fill-opacity: 1; white-space: pre; opacity: 1;" transform="translate(415.73,0)">2000</text></g><g class="xtick"><text text-anchor="middle" x="0" y="452" style="font-family: Arial; font-size: 11px; fill: rgb(139, 148, 158); fill-opacity: 1; white-space: pre; opacity: 1;" transform="translate(494.66,0)">2500</text></g><g class="xtick"><text text-anchor="middle" x="0" y="452" style="font-family: Arial; font-size: 11px; fill: rgb(139, 148, 158); fill-opacity: 1; white-space: pre; opacity: 1;" transform="translate(573.5899999999999,0)">3000</text></g></g><g class="yaxislayer-above"><g class="ytick"><text text-anchor="end" x="99" y="4.8999999999999995" transform="translate(0,380)" style="font-family: Arial; font-size: 14px; fill: rgb(230, 237, 243); fill-opacity: 1; white-space: pre; opacity: 1;">Screenshot</text></g><g class="ytick"><text text-anchor="end" x="99" y="4.8999999999999995" transform="translate(0,260)" style="font-family: Arial; font-size: 14px; fill: rgb(230, 237, 243); fill-opacity: 1; white-space: pre; opacity: 1;">Snapshot</text></g><g class="ytick"><text text-anchor="end" x="99" y="4.8999999999999995" transform="translate(0,140)" style="font-family: Arial; font-size: 14px; fill: rgb(230, 237, 243); fill-opacity: 1; white-space: pre; opacity: 1;">Navigate</text></g></g><g class="overaxes-above"/></g></g><g class="polarlayer"/><g class="smithlayer"/><g class="ternarylayer"/><g class="geolayer"/><g class="funnelarealayer"/><g class="pielayer"/><g class="iciclelayer"/><g class="treemaplayer"/><g class="sunburstlayer"/><g class="glimages"/><defs id="topdefs-daa3dc"><g class="clips"/><clipPath id="legenddaa3dc"><rect width="232" height="30" x="0" y="0"/></clipPath></defs><g class="layer-above"><g class="imagelayer"/><g class="shapelayer"/></g><g class="infolayer"><g class="legend" pointer-events="all" transform="translate(176.5,42.8)"><rect class="bg" shape-rendering="crispEdges" style="stroke: rgb(68, 68, 68); stroke-opacity: 1; fill: rgb(0, 0, 0); fill-opacity: 0; stroke-width: 0px;" width="232" height="30" x="0" y="0"/><g class="scrollbox" transform="" clip-path="url(#legenddaa3dc)"><g class="groups"><g class="traces" transform="translate(0,14.950000000000001)" style="opacity: 1;"><text class="legendtext" text-anchor="start" x="40" y="5.07" style="font-family: Arial; font-size: 13px; fill: rgb(230, 237, 243); fill-opacity: 1; white-space: pre;">MCP Stdio</text><g class="layers" style="opacity: 1;"><g class="legendfill"/><g class="legendlines"/><g class="legendsymbols"><g class="legendpoints"><path class="legendundefined" d="M6,3a3,3,0,0,1-3,3H-3a3,3,0,0,1-3-3V-3a3,3,0,0,1,3-3H3a3,3,0,0,1,3,3Z" transform="translate(20,0)" style="stroke-width: 0px; fill: rgb(248, 81, 73); fill-opacity: 1;"/></g></g></g><rect class="legendtoggle" x="0" y="-9.950000000000001" width="104.40625" height="19.900000000000002" style="fill: rgb(0, 0, 0); fill-opacity: 0;"/></g><g class="traces" transform="translate(106.90625,14.950000000000001)" style="opacity: 1;"><text class="legendtext" text-anchor="start" x="40" y="5.07" style="font-family: Arial; font-size: 13px; fill: rgb(230, 237, 243); fill-opacity: 1; white-space: pre;">FGP Daemon</text><g class="layers" style="opacity: 1;"><g class="legendfill"/><g class="legendlines"/><g class="legendsymbols"><g class="legendpoints"><path class="legendundefined" d="M6,3a3,3,0,0,1-3,3H-3a3,3,0,0,1-3-3V-3a3,3,0,0,1,3-3H3a3,3,0,0,1,3,3Z" transform="translate(20,0)" style="stroke-width: 0px; fill: rgb(63, 185, 80); fill-opacity: 1;"/></g></g></g><rect class="legendtoggle" x="0" y="-9.950000000000001" width="121.75" height="19.900000000000002" style="fill: rgb(0, 0, 0); fill-opacity: 0;"/></g></g></g><rect class="scrollbar" rx="20" ry="3" width="0" height="0" style="fill: rgb(128, 139, 164); fill-opacity: 1;" x="0" y="0"/></g><g class="g-gtitle"><text class="gtitle" x="350" y="25" text-anchor="middle" dy="0.7em" style="opacity: 1; font-family: Arial; font-size: 22px; fill: rgb(230, 237, 243); fill-opacity: 1; white-space: pre;"><tspan style="font-weight:bold">FGP vs MCP: Browser Automation</tspan></text></g><g class="g-xtitle"><text class="xtitle" x="375" y="476.9" text-anchor="middle" style="opacity: 1; font-family: Arial; font-size: 12px; fill: rgb(139, 148, 158); fill-opacity: 1; white-space: pre;">Latency (ms) — lower is better</text></g><g class="g-ytitle"/><g class="annotation" data-index="0" style="opacity: 1;"><g class="annotation-text-g" transform="rotate(0,594.75,140)"><g class="cursor-pointer" transform="translate(571,127)"><rect class="bg" x="0.5" y="0.5" width="46" height="26" style="stroke-width: 1px; stroke: rgb(0, 0, 0); stroke-opacity: 0; fill: rgb(0, 0, 0); fill-opacity: 0;"/><text class="annotation-text" text-anchor="middle" x="23.2890625" y="20" style="font-family: 'Arial Black'; font-size: 16px; fill: rgb(255, 255, 255); fill-opacity: 1; white-space: pre;"><tspan style="font-weight:bold">292×</tspan></text></g></g></g><g class="annotation" data-index="1" style="opacity: 1;"><g class="annotation-text-g" transform="rotate(0,594.75,260)"><g class="cursor-pointer" transform="translate(571,247)"><rect class="bg" x="0.5" y="0.5" width="46" height="26" style="stroke-width: 1px; stroke: rgb(0, 0, 0); stroke-opacity: 0; fill: rgb(0, 0, 0); fill-opacity: 0;"/><text class="annotation-text" text-anchor="middle" x="23.2890625" y="20" style="font-family: 'Arial Black'; font-size: 16px; fill: rgb(255, 255, 255); fill-opacity: 1; white-space: pre;"><tspan style="font-weight:bold">276×</tspan></text></g></g></g><g class="annotation" data-index="2" style="opacity: 1;"><g class="annotation-text-g" transform="rotate(0,594.75,380)"><g class="cursor-pointer" transform="translate(577,367)"><rect class="bg" x="0.5" y="0.5" width="35" height="26" style="stroke-width: 1px; stroke: rgb(0, 0, 0); stroke-opacity: 0; fill: rgb(0, 0, 0); fill-opacity: 0;"/><text class="annotation-text" text-anchor="middle" x="17.953125" y="20" style="font-family: 'Arial Black'; font-size: 16px; fill: rgb(255, 255, 255); fill-opacity: 1; white-space: pre;"><tspan style="font-weight:bold">54×</tspan></text></g></g></g></g></svg>