<svg class="main-svg" xmlns="http://www.w3.org/2000/svg" xmlns:xlink="http://www.w3.org/1999/xlink" width="700" height="500" style="" viewBox="0 0 700 500"><rect x="0" y="0" width="700" height="500" style="fill: rgb(13, 17, 23); fill-opacity: 1;"/><defs id="defs-c401ed"><g class="clips"><clipPath id="clipc401edxyplot" class="plotclip"><rect width="560" height="360"/></clipPath><clipPath class="axesclip" id="clipc401edx"><rect x="70" y="0" width="560" height="500"/></clipPath><clipPath class="axesclip" id="clipc401edy"><rect x="0" y="80" width="700" height="360"/></clipPath><clipPath class="axesclip" id="clipc401edxy"><rect x="70" y="80" width="560" height="360"/></clipPath></g><g class="gradients"/><g class="patterns"/></defs><g class="bglayer"/><g class="layer-below"><g class="imagelayer"/><g class="shapelayer"/></g><g class="cartesianlayer"><g class="subplot xy"><g class="layer-subplot"><g class="shapelayer"/><g class="imagelayer"/></g><g class="minor-gridlayer"><g class="x"/><g class="y"/></g><g class="gridlayer"><g class="x"><path class="xgrid crisp" transform="translate(203.33,0)" d="M0,80v360" style="stroke: rgb(48, 54, 61); stroke-opacity: 1; stroke-width: 1px;"/><path class="xgrid crisp" transform="translate(336.67,0)" d="M0,80v360" style="stroke: rgb(48, 54, 61); stroke-opacity: 1; stroke-width: 1px;"/><path class="xgrid crisp" transform="translate(470,0)" d="M0,80v360" style="stroke: rgb(48, 54, 61); stroke-opacity: 1; stroke-width: 1px;"/><path class="xgrid crisp" transform="translate(603.33,0)" d="M0,80v360" style="stroke: rgb(48, 54, 61); stroke-opacity: 1; stroke-width: 1px;"/></g><g class="y"><path class="ygrid crisp" transform="translate(0,370.77)" d="M70,0h560" style="stroke: rgb(48, 54, 61); stroke-opacity: 1; stroke-width: 1px;"/><path class="ygrid crisp" transform="translate(0,301.53999999999996)" d="M70,0h560" style="stroke: rgb(48, 54, 61); stroke-opacity: 1; stroke-width: 1px;"/><path class="ygrid crisp" transform="translate(0,232.31)" d="M70,0h560" style="stroke: rgb(48, 54, 61); stroke-opacity: 1; stroke-width: 1px;"/><path class="ygrid crisp" transform="translate(0,163.07999999999998)" d="M70,0h560" style="stroke: rgb(48, 54, 61); stroke-opacity: 1; stroke-width: 1px;"/><path class="ygrid crisp" transform="translate(0,93.85)" d="M70,0h560" style="stroke: rgb(48, 54, 61); stroke-opacity: 1; stroke-width: 1px;"/></g></g><g class="zerolinelayer"/><g class="layer-between"><g class="shapelayer"/><g class="imagelayer"/></g><path class="xlines-below"/><path class="ylines-below"/><g class="overlines-below"/><g class="xaxislayer-below"/><g class="yaxislayer-below"/><g class="overaxes-below"/><g class="overplot"><g class="xy" transform="translate(70,80)" clip-path="url(#clipc401edxyplot)"><g class="scatterlayer mlayer"><g class="trace scatter trace55a977" style="stroke-miterlimit: 2; opacity: 1;"><g class="fills"><g><path class="js-fill" d="M0,360L533.33,41.54L533.33,358.62L0,360Z" style="fill: rgb(248, 81, 73); fill-opacity: 0.15; stroke-width: 0;"/></g></g><g class="errorbars"/><g class="lines"><path class="js-line" d="M0,360L533.33,41.54L533.33,358.62L0,360" style="vector-effect: none; fill: none; stroke: rgb(99, 110, 250); stroke-opacity: 1; stroke-width: 0px; opacity: 1;"/></g><g class="points"/><g class="text"/></g><g class="trace scatter tracebec309" style="stroke-miterlimit: 2; opacity: 1;"><g class="fills"/><g class="errorbars"/><g class="lines"><path class="js-line" d="M0,360L533.33,41.54" style="vector-effect: none; fill: none; stroke: rgb(248, 81, 73); stroke-opacity: 1; stroke-width: 3px; opacity: 1;"/></g><g class="points"><path class="point" transform="translate(0,360)" d="M2.5,0A2.5,2.5 0 1,1 0,-2.5A2.5,2.5 0 0,1 2.5,0Z" style="opacity: 1; stroke-width: 0px; fill: rgb(248, 81, 73); fill-opacity: 1;"/><path class="point" transform="translate(26.67,344.08)" d="M2.5,0A2.5,2.5 0 1,1 0,-2.5A2.5,2.5 0 0,1 2.5,0Z" style="opacity: 1; stroke-width: 0px; fill: rgb(248, 81, 73); fill-opacity: 1;"/><path class="point" transform="translate(53.33,328.15)" d="M2.5,0A2.5,2.5 0 1,1 0,-2.5A2.5,2.5 0 0,1 2.5,0Z" style="opacity: 1; stroke-width: 0px; fill: rgb(248, 81, 73); fill-opacity: 1;"/><path class="point" transform="translate(80,312.23)" d="M2.5,0A2.5,2.5 0 1,1 0,-2.5A2.5,2.5 0 0,1 2.5,0Z" style="opacity: 1; stroke-width: 0px; fill: rgb(248, 81, 73); fill-opacity: 1;"/><path class="point" transform="translate(106.67,296.31)" d="M2.5,0A2.5,2.5 0 1,1 0,-2.5A2.5,2.5 0 0,1 2.5,0Z" style="opacity: 1; stroke-width: 0px; fill: rgb(248, 81, 73); fill-opacity: 1;"/><path class="point" transform="translate(133.33,280.38)" d="M2.5,0A2.5,2.5 0 1,1 0,-2.5A2.5,2.5 0 0,1 2.5,0Z" style="opacity: 1; stroke-width: 0px; fill: rgb(248, 81, 73); fill-opacity: 1;"/><path class="point" transform="translate(160,264.46)" d="M2.5,0A2.5,2.5 0 1,1 0,-2.5A2.5,2.5 0 0,1 2.5,0Z" style="opacity: 1; stroke-width: 0px; fill: rgb(248, 81, 73); fill-opacity: 1;"/><path class="point" transform="translate(186.67,248.54)" d="M2.5,0A2.5,2.5 0 1,1 0,-2.5A2.5,2.5 0 0,1 2.5,0Z" style="opacity: 1; stroke-width: 0px; fill: rgb(248, 81, 73); fill-opacity: 1;"/><path class="point" transform="translate(213.33,232.62)" d="M2.5,0A2.5,2.5 0 1,1 0,-2.5A2.5,2.5 0 0,1 2.5,0Z" style="opacity: 1; stroke-width: 0px; fill: rgb(248, 81, 73); fill-opacity: 1;"/><path class="point" transform="translate(240,216.69)" d="M2.5,0A2.5,2.5 0 1,1 0,-2.5A2.5,2.5 0 0,1 2.5,0Z" style="opacity: 1; stroke-width: 0px; fill: rgb(248, 81, 73); fill-opacity: 1;"/><path class="point" transform="translate(266.67,200.77)" d="M2.5,0A2.5,2.5 0 1,1 0,-2.5A2.5,2.5 0 0,1 2.5,0Z" style="opacity: 1; stroke-width: 0px; fill: rgb(248, 81, 73); fill-opacity: 1;"/><path class="point" transform="translate(293.33,184.85)" d="M2.5,0A2.5,2.5 0 1,1 0,-2.5A2.5,2.5 0 0,1 2.5,0Z" style="opacity: 1; stroke-width: 0px; fill: rgb(248, 81, 73); fill-opacity: 1;"/><path class="point" transform="translate(320,168.92)" d="M2.5,0A2.5,2.5 0 1,1 0,-2.5A2.5,2.5 0 0,1 2.5,0Z" style="opacity: 1; stroke-width: 0px; fill: rgb(248, 81, 73); fill-opacity: 1;"/><path class="point" transform="translate(346.67,153)" d="M2.5,0A2.5,2.5 0 1,1 0,-2.5A2.5,2.5 0 0,1 2.5,0Z" style="opacity: 1; stroke-width: 0px; fill: rgb(248, 81, 73); fill-opacity: 1;"/><path class="point" transform="translate(373.33,137.08)" d="M2.5,0A2.5,2.5 0 1,1 0,-2.5A2.5,2.5 0 0,1 2.5,0Z" style="opacity: 1; stroke-width: 0px; fill: rgb(248, 81, 73); fill-opacity: 1;"/><path class="point" transform="translate(400,121.15)" d="M2.5,0A2.5,2.5 0 1,1 0,-2.5A2.5,2.5 0 0,1 2.5,0Z" style="opacity: 1; stroke-width: 0px; fill: rgb(248, 81, 73); fill-opacity: 1;"/><path class="point" transform="translate(426.67,105.23)" d="M2.5,0A2.5,2.5 0 1,1 0,-2.5A2.5,2.5 0 0,1 2.5,0Z" style="opacity: 1; stroke-width: 0px; fill: rgb(248, 81, 73); fill-opacity: 1;"/><path class="point" transform="translate(453.33,89.31)" d="M2.5,0A2.5,2.5 0 1,1 0,-2.5A2.5,2.5 0 0,1 2.5,0Z" style="opacity: 1; stroke-width: 0px; fill: rgb(248, 81, 73); fill-opacity: 1;"/><path class="point" transform="translate(480,73.38)" d="M2.5,0A2.5,2.5 0 1,1 0,-2.5A2.5,2.5 0 0,1 2.5,0Z" style="opacity: 1; stroke-width: 0px; fill: rgb(248, 81, 73); fill-opacity: 1;"/><path class="point" transform="translate(506.67,57.46)" d="M2.5,0A2.5,2.5 0 1,1 0,-2.5A2.5,2.5 0 0,1 2.5,0Z" style="opacity: 1; stroke-width: 0px; fill: rgb(248, 81, 73); fill-opacity: 1;"/><path class="point" transform="translate(533.33,41.54)" d="M2.5,0A2.5,2.5 0 1,1 0,-2.5A2.5,2.5 0 0,1 2.5,0Z" style="opacity: 1; stroke-width: 0px; fill: rgb(248, 81, 73); fill-opacity: 1;"/></g><g class="text"/></g><g class="trace scatter tracee5b34e" style="stroke-miterlimit: 2; opacity: 1;"><g class="fills"/><g class="errorbars"/><g class="lines"><path class="js-line" d="M0,360L533.33,358.62" style="vector-effect: none; fill: none; stroke: rgb(63, 185, 80); stroke-opacity: 1; stroke-width: 3px; opacity: 1;"/></g><g class="points"><path class="point" transform="translate(0,360)" d="M2.5,0A2.5,2.5 0 1,1 0,-2.5A2.5,2.5 0 0,1 2.5,0Z" style="opacity: 1; stroke-width: 0px; fill: rgb(63, 185, 80); fill-opacity: 1;"/><path class="point" transform="translate(26.67,359.93)" d="M2.5,0A2.5,2.5 0 1,1 0,-2.5A2.5,2.5 0 0,1 2.5,0Z" style="opacity: 1; stroke-width: 0px; fill: rgb(63, 185, 80); fill-opacity: 1;"/><path class="point" transform="translate(53.33,359.86)" d="M2.5,0A2.5,2.5 0 1,1 0,-2.5A2.5,2.5 0 0,1 2.5,0Z" style="opacity: 1; stroke-width: 0px; fill: rgb(63, 185, 80); fill-opacity: 1;"/><path class="point" transform="translate(80,359.79)" d="M2.5,0A2.5,2.5 0 1,1 0,-2.5A2.5,2.5 0 0,1 2.5,0Z" style="opacity: 1; stroke-width: 0px; fill: rgb(63, 185, 80); fill-opacity: 1;"/><path class="point" transform="translate(106.67,359.72)" d="M2.5,0A2.5,2.5 0 1,1 0,-2.5A2.5,2.5 0 0,1 2.5,0Z" style="opacity: 1; stroke-width: 0px; fill: rgb(63, 185, 80); fill-opacity: 1;"/><path class="point" transform="translate(133.33,359.65)" d="M2.5,0A2.5,2.5 0 1,1 0,-2.5A2.5,2.5 0 0,1 2.5,0Z" style="opacity: 1; stroke-width: 0px; fill: rgb(63, 185, 80); fill-opacity: 1;"/><path class="point" transform="translate(160,359.58)" d="M2.5,0A2.5,2.5 0 1,1 0,-2.5A2.5,2.5 0 0,1 2.5,0Z" style="opacity: 1; stroke-width: 0px; fill: rgb(63, 185, 80); fill-opacity: 1;"/><path class="point" transform="translate(186.67,359.52)" d="M2.5,0A2.5,2.5 0 1,1 0,-2.5A2.5,2.5 0 0,1 2.5,0Z" style="opacity: 1; stroke-width: 0px; fill: rgb(63, 185, 80); fill-opacity: 1;"/><path class="point" transform="translate(213.33,359.45)" d="M2.5,0A2.5,2.5 0 1,1 0,-2.5A2.5,2.5 0 0,1 2.5,0Z" style="opacity: 1; stroke-width: 0px; fill: rgb(63, 185, 80); fill-opacity: 1;"/><path class="point" transform="translate(240,359.38)" d="M2.5,0A2.5,2.5 0 1,1 0,-2.5A2.5,2.5 0 0,1 2.5,0Z" style="opacity: 1; stroke-width: 0px; fill: rgb(63, 185, 80); fill-opacity: 1;"/><path class="point" transform="translate(266.67,359.31)" d="M2.5,0A2.5,2.5 0 1,1 0,-2.5A2.5,2.5 0 0,1 2.5,0Z" style="opacity: 1; stroke-width: 0px; fill: rgb(63, 185, 80); fill-opacity: 1;"/><path class="point" transform="translate(293.33,359.24)" d="M2.5,0A2.5,2.5 0 1,1 0,-2.5A2.5,2.5 0 0,1 2.5,0Z" style="opacity: 1; stroke-width: 0px; fill: rgb(63, 185, 80); fill-opacity: 1;"/><path class="point" transform="translate(320,359.17)" d="M2.5,0A2.5,2.5 0 1,1 0,-2.5A2.5,2.5 0 0,1 2.5,0Z" style="opacity: 1; stroke-width: 0px; fill: rgb(63, 185, 80); fill-opacity: 1;"/><path class="point" transform="translate(346.67,359.1)" d="M2.5,0A2.5,2.5 0 1,1 0,-2.5A2.5,2.5 0 0,1 2.5,0Z" style="opacity: 1; stroke-width: 0px; fill: rgb(63, 185, 80); fill-opacity: 1;"/><path class="point" transform="translate(373.33,359.03)" d="M2.5,0A2.5,2.5 0 1,1 0,-2.5A2.5,2.5 0 0,1 2.5,0Z" style="opacity: 1; stroke-width: 0px; fill: rgb(63, 185, 80); fill-opacity: 1;"/><path class="point" transform="translate(400,358.96)" d="M2.5,0A2.5,2.5 0 1,1 0,-2.5A2.5,2.5 0 0,1 2.5,0Z" style="opacity: 1; stroke-width: 0px; fill: rgb(63, 185, 80); fill-opacity: 1;"/><path class="point" transform="translate(426.67,358.89)" d="M2.5,0A2.5,2.5 0 1,1 0,-2.5A2.5,2.5 0 0,1 2.5,0Z" style="opacity: 1; stroke-width: 0px; fill: rgb(63, 185, 80); fill-opacity: 1;"/><path class="point" transform="translate(453.33,358.82)" d="M2.5,0A2.5,2.5 0 1,1 0,-2.5A2.5,2.5 0 0,1 2.5,0Z" style="opacity: 1; stroke-width: 0px; fill: rgb(63, 185, 80); fill-opacity: 1;"/><path class="point" transform="translate(480,358.75)" d="M2.5,0A2.5,2.5 0 1,1 0,-2.5A2.5,2.5 0 0,1 2.5,0Z" style="opacity: 1; stroke-width: 0px; fill: rgb(63, 185, 80); fill-opacity: 1;"/><path class="point" transform="translate(506.67,358.68)" d="M2.5,0A2.5,2.5 0 1,1 0,-2.5A2.5,2.5 0 0,1 2.5,0Z" style="opacity: 1; stroke-width: 0px; fill: rgb(63, 185, 80); fill-opacity: 1;"/><path class="point" transform="translate(533.33,358.62)" d="M2.5,0A2.5,2.5 0 1,1 0,-2.5A2.5,2.5 0 0,1 2.5,0Z" style="opacity: 1; stroke-width: 0px; fill: rgb(63, 185, 80); fill-opacity: 1;"/></g><g class="text"/></g></g></g></g><path class="xlines-above crisp" d="M0,0" style="fill: none;"/><path class="ylines-above crisp" d="M0,0" style="fill: none;"/><g class="overlines-above"/><g class="xaxislayer-above"><g class="xtick"><text text-anchor="middle" x="0" y="452" transform="translate(70,0)" style="font-family: Arial; font-size: 11px; fill: rgb(139, 148, 158); fill-opacity: 1; white-space: pre; opacity: 1;">0</text></g><g class="xtick"><text text-anchor="middle" x="0" y="452" style="font-family: Arial; font-size: 11px; fill: rgb(139, 148, 158); fill-opacity: 1; white-space: pre; opacity: 1;" transform="translate(203.33,0)">5</text></g><g class="xtick"><text text-anchor="middle" x="0" y="452" style="font-family: Arial; font-size: 11px; fill: rgb(139, 148, 158); fill-opacity: 1; white-space: pre; opacity: 1;" transform="translate(336.67,0)">10</text></g><g class="xtick"><text text-anchor="middle" x="0" y="452" style="font-family: Arial; font-size: 11px; fill: rgb(139, 148, 158); fill-opacity: 1; white-space: pre; opacity: 1;" transform="translate(470,0)">15</text></g><g class="xtick"><text text-anchor="middle" x="0" y="452" style="font-family: Arial; font-size: 11px; fill: rgb(139, 148, 158); fill-opacity: 1; white-space: pre; opacity: 1;" transform="translate(603.33,0)">20</text></g></g><g class="yaxislayer-above"><g class="ytick"><text text-anchor="end" x="69" y="3.8499999999999996" transform="translate(0,440)" style="font-family: Arial; font-size: 11px; fill: rgb(139, 148, 158); fill-opacity: 1; white-space: pre; opacity: 1;">0</text></g><g class="ytick"><text text-anchor="end" x="69" y="3.8499999999999996" style="font-family: Arial; font-size: 11px; fill: rgb(139, 148, 158); fill-opacity: 1; white-space: pre; opacity: 1;" transform="translate(0,370.77)">10</text></g><g class="ytick"><text text-anchor="end" x="69" y="3.8499999999999996" style="font-family: Arial; font-size: 11px; fill: rgb(139, 148, 158); fill-opacity: 1; white-space: pre; opacity: 1;" transform="translate(0,301.53999999999996)">20</text></g><g class="ytick"><text text-anchor="end" x="69" y="3.8499999999999996" style="font-family: Arial; font-size: 11px; fill: rgb(139, 148, 158); fill-opacity: 1; white-space: pre; opacity: 1;" transform="translate(0,232.31)">30</text></g><g class="ytick"><text text-anchor="end" x="69" y="3.8499999999999996" style="font-family: Arial; font-size: 11px; fill: rgb(139, 148, 158); fill-opacity: 1; white-space: pre; opacity: 1;" transform="translate(0,163.07999999999998)">40</text></g><g class="ytick"><text text-anchor="end" x="69" y="3.8499999999999996" style="font-family: Arial; font-size: 11px; fill: rgb(139, 148, 158); fill-opacity: 1; white-space: pre; opacity: 1;" transform="translate(0,93.85)">50</text></g></g><g class="overaxes-above"/></g></g><g class="polarlayer"/><g class="smithlayer"/><g class="ternarylayer"/><g class="geolayer"/><g class="funnelarealayer"/><g class="pielayer"/><g class="iciclelayer"/><g class="treemaplayer"/><g class="sunburstlayer"/><g class="glimages"/><defs id="topdefs-c401ed"><g class="clips"/><clipPath id="legendc401ed"><rect width="232" height="30" x="0" y="0"/></clipPath></defs><g class="layer-above"><g class="imagelayer"/><g class="shapelayer"/></g><g class="infolayer"><g class="legend" pointer-events="all" transform="translate(234,42.8)"><rect class="bg" shape-rendering="crispEdges" style="stroke: rgb(68, 68, 68); stroke-opacity: 1; fill: rgb(0, 0, 0); fill-opacity: 0; stroke-width: 0px;" width="232" height="30" x="0" y="0"/><g class="scrollbox" transform="" clip-path="url(#legendc401ed)"><g class="groups"><g class="traces" transform="translate(0,14.950000000000001)" style="opacity: 1;"><text class="legendtext" text-anchor="start" x="40" y="5.07" style="font-family: Arial; font-size: 13px; fill: rgb(230, 237, 243); fill-opacity: 1; white-space: pre;">MCP Stdio</text><g class="layers" style="opacity: 1;"><g class="legendfill"/><g class="legendlines"><path class="js-line" d="M5,0h30" style="fill: none; stroke: rgb(248, 81, 73); stroke-opacity: 1; stroke-width: 3px;"/></g><g class="legendsymbols"><g class="legendpoints"><path class="scatterpts" transform="translate(20,0)" d="M2.5,0A2.5,2.5 0 1,1 0,-2.5A2.5,2.5 0 0,1 2.5,0Z" style="opacity: 1; stroke-width: 0px; fill: rgb(248, 81, 73); fill-opacity: 1;"/></g></g></g><rect class="legendtoggle" x="0" y="-9.950000000000001" width="104.40625" height="19.900000000000002" style="fill: rgb(0, 0, 0); fill-opacity: 0;"/></g><g class="traces" transform="translate(106.90625,14.950000000000001)" style="opacity: 1;"><text class="legendtext" text-anchor="start" x="40" y="5.07" style="font-family: Arial; font-size: 13px; fill: rgb(230, 237, 243); fill-opacity: 1; white-space: pre;">FGP Daemon</text><g class="layers" style="opacity: 1;"><g class="legendfill"/><g class="legendlines"><path class="js-line" d="M5,0h30" style="fill: none; stroke: rgb(63, 185, 80); stroke-opacity: 1; stroke-width: 3px;"/></g><g class="legendsymbols"><g class="legendpoints"><path class="scatterpts" transform="translate(20,0)" d="M2.5,0A2.5,2.5 0 1,1 0,-2.5A2.5,2.5 0 0,1 2.5,0Z" style="opacity: 1; stroke-width: 0px; fill: rgb(63, 185, 80); fill-opacity: 1;"/></g></g></g><rect class="legendtoggle" x="0" y="-9.950000000000001" width="121.75" height="19.900000000000002" style="fill: rgb(0, 0, 0); fill-opacity: 0;"/></g></g></g><rect class="scrollbar" rx="20" ry="3" width="0" height="0" style="fill: rgb(128, 139, 164); fill-opacity: 1;" x="0" y="0"/></g><g class="g-gtitle"><text class="gtitle" x="350" y="25" text-anchor="middle" dy="0.7em" style="opacity: 1; font-family: Arial; font-size: 22px; fill: rgb(230, 237, 243); fill-opacity: 1; white-space: pre;"><tspan style="font-weight:bold">Cold-Start Overhead Compounds</tspan></text></g><g class="g-xtitle"><text class="xtitle" x="350" y="476.9" text-anchor="middle" style="opacity: 1; font-family: Arial; font-size: 12px; fill: rgb(139, 148, 158); fill-opacity: 1; white-space: pre;">Number of Tool Calls</text></g><g class="g-ytitle"><text class="ytitle" transform="rotate(-90,38.05,260)" x="38.05" y="260" text-anchor="middle" style="opacity: 1; font-family: Arial; font-size: 12px; fill: rgb(139, 148, 158); fill-opacity: 1; white-space: pre;">Cumulative Overhead (seconds)</text></g><g class="annotation" data-index="0" style="opacity: 1;"><g class="annotation-text-g" transform="rotate(0,543.33,86.53999999999999)"><g class="cursor-pointer" transform="translate(494,72)"><rect class="bg" x="0.5" y="0.5" width="97" height="28" style="stroke-width: 1px; stroke: rgb(0, 0, 0); stroke-opacity: 0; fill: rgb(13, 17, 23); fill-opacity: 1;"/><text class="annotation-text" text-anchor="middle" x="48.8671875" y="20" style="font-family: 'Arial Black'; font-size: 14px; fill: rgb(248, 81, 73); fill-opacity: 1; white-space: pre;"><tspan style="font-weight:bold">46s wasted</tspan></text></g></g><g class="annotation-arrow-g" style="opacity: 1;"><path d="M567.33,100.53999999999999L603.33,121.53999999999999" style="stroke-width: 2px; stroke: rgb(248, 81, 73); stroke-opacity: 1; stroke-dasharray: 0px, 0px, 39.0773px, 41.6773px;"/><path d="M-3.7,-2.5V2.5L1.3,0Z" transform="translate(601.0841674804688,120.22993469238281)rotate(30.258954718705407)scale(2)" style="fill: rgb(248, 81, 73); stroke-width: 0;"/></g></g><g class="annotation" data-index="1" style="opacity: 1;"><g class="annotation-text-g" transform="rotate(0,603.33,417.85)"><g class="cursor-pointer" transform="translate(562,403)"><rect class="bg" x="0.5" y="0.5" width="81" height="28" style="stroke-width: 1px; stroke: rgb(0, 0, 0); stroke-opacity: 0; fill: rgb(13, 17, 23); fill-opacity: 1;"/><text class="annotation-text" text-anchor="middle" x="41.1640625" y="20" style="font-family: 'Arial Black'; font-size: 14px; fill: rgb(63, 185, 80); fill-opacity: 1; white-space: pre;"><tspan style="font-weight:bold">0.2s total</tspan></text></g></g></g><g class="annotation" data-index="2" style="opacity: 1;"><g class="annotation-text-g" transform="rotate(0,390,287.69)"><g class="cursor-pointer" transform="translate(345,277)"><rect class="bg" x="0.5" y="0.5" width="90" height="20" style="stroke-width: 1px; stroke: rgb(0, 0, 0); stroke-opacity: 0; fill: rgb(0, 0, 0); fill-opacity: 0;"/><text class="annotation-text" text-anchor="middle" x="45.4375" y="16" style="font-family: Arial; font-size: 16px; fill: rgb(139, 148, 158); fill-opacity: 1; white-space: pre;"><tspan style="font-weight:bold">Time saved</tspan></text></g></g></g></g></svg>